<svg xmlns="http://www.w3.org/2000/svg" xmlns:xlink="http://www.w3.org/1999/xlink" version="1.1" x="0px" y="0px" viewBox="0 0 100 125" enable-background="new 0 0 100 100" xml:space="preserve"><path d="M87.184,26.12c7.98-7.981,9.752-15.074,5.765-19.064c-3.992-3.99-11.084-2.216-19.064,5.762L57.957,28.745  c-0.486,0.488-1.441,0.787-2.122,0.663l-21.127-3.837l-21.124-3.835c-0.678-0.124-1.634,0.175-2.121,0.661l-4.506,4.505  c-0.974,0.975-0.724,2.189,0.559,2.696l17.242,6.814l17.244,6.813c1.283,0.508,1.533,1.721,0.559,2.698L24.04,69.331  c-0.404,0.56-1.288,0.919-1.967,0.793L10.581,67.88c-0.678-0.126-1.631,0.173-2.119,0.66l-2.867,2.864  c-0.975,0.977-0.725,2.188,0.559,2.693l12.736,5.385c0.642,0.252,1.372,0.984,1.627,1.627L25.9,93.846  c0.505,1.28,1.72,1.532,2.695,0.559l2.865-2.868c0.486-0.485,0.785-1.44,0.661-2.118L29.873,77.93  c-0.123-0.682,0.234-1.564,0.795-1.969l23.409-18.52c0.978-0.977,2.188-0.725,2.696,0.559l6.813,17.242l6.815,17.24  c0.508,1.279,1.722,1.535,2.695,0.56l4.508-4.506c0.487-0.488,0.787-1.442,0.66-2.123L74.434,65.29l-3.84-21.124  c-0.125-0.68,0.174-1.635,0.662-2.122L87.184,26.12z"/><text x="0" y="115" fill="#000000" font-size="5px" font-weight="bold" font-family="'Helvetica Neue', Helvetica, Arial-Unicode, Arial, Sans-serif">Created by David</text><text x="0" y="120" fill="#000000" font-size="5px" font-weight="bold" font-family="'Helvetica Neue', Helvetica, Arial-Unicode, Arial, Sans-serif">from the Noun Project</text></svg>