<svg xmlns:dc="http://purl.org/dc/elements/1.1/" xmlns:cc="http://creativecommons.org/ns#" xmlns:rdf="http://www.w3.org/1999/02/22-rdf-syntax-ns#" xmlns:svg="http://www.w3.org/2000/svg" xmlns="http://www.w3.org/2000/svg" xmlns:sodipodi="http://sodipodi.sourceforge.net/DTD/sodipodi-0.dtd" xmlns:inkscape="http://www.inkscape.org/namespaces/inkscape" viewBox="0 0 350.57651 435.6704875" version="1.1" x="0px" y="0px"><g transform="translate(2401.5889,-347.41945)"><path style="" d="m -2313.484,347.569 c -1.48,-0.3398 -3.077,-0.1076 -4.472,0.7688 -2.79,1.7529 -3.57,5.3842 -1.817,8.1745 l 31.931,50.3763 c 0.894,1.4309 2.27,2.3331 3.773,2.6551 1.431,0.2862 3.008,0.09 4.332,-0.7688 2.754,-1.7529 3.639,-5.3842 1.886,-8.1745 l -31.93,-50.446 c -0.877,-1.3773 -2.223,-2.2455 -3.703,-2.5854 z m -50.097,36.4022 c -1.493,0.2103 -2.929,1.0002 -3.912,2.3059 -1.968,2.6115 -1.424,6.3126 1.187,8.2443 l 47.721,35.8434 c 0.751,0.5366 1.553,0.7992 2.376,0.9781 2.146,0.465 4.508,-0.3399 5.939,-2.2359 1.967,-2.6114 1.423,-6.3129 -1.188,-8.2446 l -47.791,-35.7733 c -1.306,-0.9659 -2.838,-1.3279 -4.332,-1.1179 z m 121.015,39.6861 c -4.821,0.8854 -9.275,3.6006 -12.298,7.9649 -2.11,3.0765 -3.28,6.5898 -3.423,10.1314 6.975,-2.1106 14.869,-1.1179 21.38,3.3537 l 49.048,33.677 c -2.468,-4.1497 -3.641,-8.8618 -3.283,-13.8343 0.25,-3.7919 1.42,-7.3338 3.423,-10.4103 l -40.524,-27.8781 c -4.311,-2.9692 -9.503,-3.8897 -14.323,-3.0043 z m 88.035,2.2359 c -4.454,-0.3445 -8.979,1.0442 -12.646,4.1919 -4.15,3.6488 -6.256,8.6846 -6.149,13.7644 8.264,-2.0033 17.328,0.6078 23.267,7.4763 l 83.424,96.6994 c 5.294,6.153 8.402,13.689 9.153,21.3803 l 0.699,-0.9083 c 8.406,-12.2702 7.601,-28.7327 -2.236,-39.9655 l -1.817,-2.1661 -20.052,-23.057 -61.625,-71.3368 c -3.202,-3.6668 -7.564,-5.7345 -12.018,-6.0786 z m -239.653,12.3668 c -3.041,-0.8228 -6.409,1.0442 -7.196,4.1922 -0.859,3.1839 1.008,6.3738 4.192,7.1965 l 57.642,15.3715 c 0.143,0.036 0.242,0.07 0.35,0.07 3.04,0.6439 6.06,-1.2213 6.847,-4.262 0.823,-3.1481 -1.08,-6.4077 -4.192,-7.2663 l -57.643,-15.3016 z m 110.813,7.1965 c -4.798,0.9168 -9.274,3.6528 -12.297,8.035 -2.146,3.0407 -3.316,6.5894 -3.423,10.131 6.976,-2.146 14.869,-1.1877 21.38,3.284 l 1.537,1.1179 c -0.465,-5.6879 0.932,-11.5168 4.402,-16.4893 0.787,-1.1805 1.687,-2.214 2.725,-3.1441 -4.365,-2.9334 -9.525,-3.851 -14.324,-2.9345 z m 28.717,1.4674 c -4.821,0.9033 -9.292,3.6006 -12.297,7.9649 -6.01,8.6929 -3.732,20.6805 4.961,26.6904 l 84.542,58.0615 -1.537,2.3059 -102.01,-70.1492 c -8.728,-6.0099 -20.716,-3.768 -26.69,4.9607 -6.01,8.7287 -3.768,20.6462 4.96,26.6203 l 102.08,70.1492 -1.607,2.2358 -93.066,-63.9307 c -8.729,-5.9741 -20.646,-3.768 -26.621,4.9607 -6.01,8.7286 -3.837,20.6805 4.891,26.6904 l 93.137,63.9308 -1.607,2.2358 -62.254,-42.7605 c -8.729,-6.0099 -20.647,-3.7319 -26.621,4.961 -6.01,8.7287 -3.768,20.6802 4.961,26.6901 l 62.184,42.7601 71.197,48.9089 c 14.882,10.2311 35.184,6.4274 45.415,-8.4543 l 61.905,-89.9919 c 8.407,-12.2703 7.53,-28.6988 -2.236,-39.8958 l -1.886,-2.1657 -19.983,-23.1271 -61.695,-71.4066 c -6.332,-7.3336 -17.364,-8.1127 -24.734,-1.8166 -7.333,6.3319 -8.148,17.4001 -1.817,24.7336 l 25.573,29.6947 -0.21,0.2794 -84.542,-58.1316 c -4.364,-3.0049 -9.573,-3.9075 -14.393,-3.0042 z" fill="#000000"/></g><text x="0" y="363.53639" fill="#000000" font-size="5px" font-weight="bold" font-family="'Helvetica Neue', Helvetica, Arial-Unicode, Arial, Sans-serif">Created by Hopkins</text><text x="0" y="368.53639" fill="#000000" font-size="5px" font-weight="bold" font-family="'Helvetica Neue', Helvetica, Arial-Unicode, Arial, Sans-serif">from the Noun Project</text></svg>