<svg xmlns="http://www.w3.org/2000/svg" xmlns:xlink="http://www.w3.org/1999/xlink" version="1.1" x="0px" y="0px" viewBox="0 0 69 86.25" style="enable-background:new 0 0 69 69;" xml:space="preserve"><g><path d="M26.95131,55.38704c5.3125-0.7616,9.56238-5.16498,9.98157-10.65051l0.41376-5.43622   c-0.10269-0.09631-2.8094-2.6347-2.64423-2.4798c-1.1077-1.04375-3.78389,4.87077-5.94434,2.87402l-2.94385-2.75439v18.08704   c1.19885-0.96747,2.28619-2.08276,3.22656-3.34338c0.16553-0.22168,0.47852-0.26758,0.69971-0.10156   c0.22168,0.16504,0.26709,0.47754,0.10205,0.69922C28.98579,53.43013,28.0146,54.46669,26.95131,55.38704z"/><path d="M45.09694,29.03828V16.97969c-2.88989,4.36609-5.95959,8.74774-9.26074,12.05859H45.09694z"/><path d="M27.5201,56.72712c2.35077,1.66754,3.59125,3.90015,3.90594,7.02991c0.02734,0.27442-0.17285,0.51954-0.44775,0.54688   c-0.0166,0.00195-0.03369,0.00293-0.05029,0.00293c-0.25391,0-0.47119-0.19238-0.49707-0.4502   c-0.32837-3.26556-1.77478-5.4538-4.6167-7.01605v9.15961h10.94482C35.86946,61.28132,32.1357,57.62696,27.5201,56.72712z"/><path d="M55.21559,29.03828c-3.07391-2.76276-5.995-7.12531-9.11865-12.05927v12.05927H55.21559z"/><path d="M56.77235,29.03828h6.8031c-5.30457-2.61316-10.37933-6.58423-15.76392-11.16394   C50.87209,22.63753,53.75185,26.66414,56.77235,29.03828z"/><path d="M34.39455,29.03828c3.16309-2.97931,6.13422-7.04767,8.93982-11.22052c-5.01471,4.0777-10.32483,8.11572-15.99622,11.22052   H34.39455z"/><path d="M60.98903,36.81855c-0.10092,0.09445-3.27232,3.06256-3.06982,2.87305c-1.60238,1.4813-3.09619-1.1708-4.19189-1.93347   l0.53418,6.97839c0.42188,5.51807,4.70563,9.93878,10.04852,10.66461c-1.24164-1.07104-2.35034-2.30475-3.30731-3.68317   c-0.15771-0.22656-0.10156-0.53809,0.12549-0.69629c0.22705-0.15625,0.53809-0.10059,0.6958,0.12598   c1.01233,1.45825,2.21185,2.73358,3.55566,3.82562V40.21833l-2.43384-2.27844   C62.15728,37.34333,61.59348,36.26102,60.98903,36.81855z"/><path d="M44.52168,37.57612c-0.4531-0.32011-0.99446-1.29048-1.56342-0.75562c-0.10091,0.09447-3.2674,3.05879-3.06689,2.87109   c-0.43512,0.41132-1.05737,0.51538-1.59613,0.31976l-0.3653,4.80133c-0.4093,5.35199-4.17749,9.75482-9.12305,11.19318   c3.73981,1.08624,6.80804,3.87158,8.2536,7.50507h1.23718C42.6244,56.82509,46.615,45.26005,44.52168,37.57612z"/><path d="M56.5945,30.03828H34.59987h-8.78564v5.526c3.25723,2.80604,3.71216,4.02439,4.38281,3.39392   c0.1009-0.09447,3.26786-3.05978,3.06738-2.87207c1.43692-1.35892,2.70642,0.68206,3.08325,0.90387   c1.64164,1.34421,2.21362,2.57706,2.86108,1.9682l0.96948-0.9068c1.12257-0.78557,2.62073-3.44714,4.21948-1.9682   c0.10081,0.09457,3.26525,3.0629,3.06494,2.875c1.17844,1.10817,3.79327-4.968,6.01617-2.80359   c0.10006,0.09359,3.19586,2.98919,2.99847,2.80457c0.60569,0.56382,1.1679-0.53571,2.06909-1.22668   c0.85985-0.57503,2.34178-3.10338,3.88403-1.64539c0.1003,0.0938,3.14276,2.93912,2.94922,2.75812v-8.80694H56.5945z"/><path d="M60.76344,63.85664c-0.02588,0.25782-0.24316,0.4502-0.49707,0.4502c-0.0166,0-0.03369-0.00098-0.05029-0.00293   c-0.2749-0.02734-0.4751-0.27246-0.44775-0.54688c0.31476-3.13019,1.55524-5.36298,3.90649-7.03009   c-4.61584,0.89954-8.35028,4.55408-9.2395,9.27326h10.94434v-9.16016C62.53822,58.40364,61.09181,60.59108,60.76344,63.85664z"/><path d="M37.76216,66.0002h15.67004c0.08813-0.508,0.20459-1.00488,0.3512-1.48926H37.4109   C37.55751,64.99532,37.67403,65.4922,37.76216,66.0002z"/><path d="M62.37996,56.00825c-4.94128-1.43488-8.70599-5.83679-9.11554-11.19556l-0.61548-8.04028   c-1.11477-0.73918-3.83013,4.84382-5.86792,2.91821c-0.10008-0.09378-0.53238-0.49885-0.43225-0.40503   c-1.32882,7.1604,2.52427,17.98904,6.54083,24.22534h1.24426C55.57845,59.87983,58.64345,57.09602,62.37996,56.00825z"/><path d="M26.30019,20.06318c0.10004,0.12,0.25,0.20001,0.40002,0.20001c0.02997,0,0.06-0.01001,0.08997-0.01001   c0.19-0.03998,0.34003-0.16998,0.40002-0.35999l0.65997-2.37l2.46002,0.04999c0.19,0.02002,0.37-0.09998,0.46002-0.27002   c0.07996-0.16998,0.07001-0.37-0.05005-0.52997l-2.94-3.97003c1.03003-0.89996,2.08002-1.85999,3.13-2.85999l3.20001,4.32001   c0.10004,0.12,0.25,0.20001,0.40002,0.20001c0.02997,0,0.06,0,0.08997-0.01001c0.19-0.04004,0.34003-0.16998,0.39001-0.35999   l0.66998-2.37l2.46002,0.04999c0.20001,0,0.37-0.10004,0.45001-0.27002c0.08997-0.16998,0.07001-0.38-0.04004-0.52997   l-3.68994-4.97003c0.65997-0.71002,1.32996-1.44,1.98999-2.16998c0.17999-0.21002,0.15997-0.52002-0.04004-0.71002   c-0.20996-0.17999-0.51996-0.15997-0.70996,0.03998c-4.49323,5.05505-8.5896,8.73157-12.76001,12.03003H23.3102   c-0.19543,0.19543-2.68738,2.07617-4.17999,3.12c0,0.01001-0.01001,0.01001-0.01001,0.01001   c-5.44452,3.78088-10.94598,6.82666-15.21997,8.75c-0.25,0.10999-0.36005,0.40997-0.24005,0.65997   c0.08002,0.17999,0.26001,0.29004,0.45001,0.29004c0.07001,0,0.14001-0.01001,0.21002-0.04004   c0.89001-0.40997,1.77997-0.83997,2.64996-1.27997l3.70001,4.96997c0.09003,0.13,0.23999,0.20001,0.40002,0.20001   c0.02997,0,0.06,0,0.08997-0.01001c0.19-0.02997,0.34003-0.16998,0.39001-0.34998l0.66998-2.37l2.46002,0.03998   c0.17999,0,0.37-0.09998,0.45001-0.27002c0.08997-0.16998,0.07001-0.37-0.03998-0.51996l-3.20001-4.31   c1.17999-0.67004,2.38-1.39001,3.64996-2.19l2.95001,3.96997c0.09003,0.13,0.23999,0.20001,0.40002,0.20001h0.08997   c0.19-0.03998,0.34003-0.17999,0.39001-0.35999l0.65997-2.37l2.46002,0.04999c0.19,0.03998,0.37-0.09998,0.46002-0.27002   c0.08997-0.16998,0.07001-0.38-0.04004-0.52997l-2.77997-3.75c1.17999-0.83002,2.31-1.67999,3.39001-2.53003L26.30019,20.06318z"/><path d="M46.10017,16.97902V10.8932c0.13,0.01001,0.25,0.01001,0.37,0.01001c2.58002,0,5-0.98004,7.35004-2.97003   c0.15997-0.14001,0.21997-0.34998,0.14996-0.54999c-0.06-0.19-0.23999-0.32001-0.44995-0.33002   c-3.11005-0.14001-5.66003-1.03998-7.60004-2.69c-0.14996-0.12-0.35999-0.14996-0.52997-0.07001   c-0.17999,0.08002-0.29004,0.26001-0.29004,0.45001v12.23584h0.99677H46.10017z"/></g><text x="0" y="84" fill="#000000" font-size="5px" font-weight="bold" font-family="'Helvetica Neue', Helvetica, Arial-Unicode, Arial, Sans-serif">Created by Vectors Point</text><text x="0" y="89" fill="#000000" font-size="5px" font-weight="bold" font-family="'Helvetica Neue', Helvetica, Arial-Unicode, Arial, Sans-serif">from the Noun Project</text></svg>