<svg xmlns="http://www.w3.org/2000/svg" xmlns:xlink="http://www.w3.org/1999/xlink" version="1.1" x="0px" y="0px" viewBox="0 0 60 75" style="enable-background:new 0 0 60 60;" xml:space="preserve"><path d="M54,25c0-1.02-0.55-1.79-7.65-2.41C41.98,22.21,36.17,22,30,22c-6.17,0-11.98,0.21-16.35,0.59C6.55,23.21,6,23.98,6,25  c0,0.48,0.13,0.91,1,1.29v23.43C6.51,49.94,6,50.32,6,51c0,1.02,0.55,1.79,7.65,2.41c2.62,0.23,5.75,0.39,9.16,0.49  c0.06,0.01,0.12,0.03,0.19,0.03c0,0,0,0,0,0c0,0,0,0,0,0c0,0,0.01,0,0.01,0c0.05,0,0.1-0.01,0.14-0.02C25.34,53.97,27.65,54,30,54  c6.17,0,11.97-0.21,16.35-0.59C53.45,52.79,54,52.02,54,51c0-0.68-0.51-1.06-1-1.29V26.29C53.87,25.91,54,25.48,54,25z M30,24  c9.44,0,16.4,0.48,19.87,1C46.4,25.52,39.44,26,30,26s-16.4-0.48-19.87-1C13.6,24.48,20.56,24,30,24z M9,26.83  c1.1,0.21,2.6,0.4,4.65,0.58c0.34,0.03,0.7,0.06,1.06,0.08L9,48.09V26.83z M10.26,51.02l5.72-20.61l5.7,21.46  C16.54,51.69,12.63,51.36,10.26,51.02z M23.08,49.34l-5.76-21.67c3.38,0.19,7.28,0.3,11.38,0.32L23.08,49.34z M30,52  c-1.96,0-3.8-0.02-5.53-0.06L30,30.92l5.55,21.02C33.81,51.98,31.96,52,30,52z M31.3,27.99c4.1-0.02,8-0.13,11.38-0.32L36.92,49.3  L31.3,27.99z M38.31,51.86l5.71-21.46l5.72,20.62C47.37,51.36,43.46,51.69,38.31,51.86z M51,48.09l-5.71-20.6  c0.36-0.03,0.72-0.05,1.06-0.08c2.05-0.18,3.55-0.37,4.65-0.58V48.09z"/><path d="M52.58,6.09l-13.51,6.34c-0.45-0.54-1.03-0.97-1.71-1.22c-1.01-0.36-2.09-0.31-3.06,0.14c-0.97,0.45-1.7,1.26-2.06,2.26  c-0.36,1-0.31,2.09,0.14,3.06c0.45,0.97,1.26,1.7,2.26,2.06c0.44,0.16,0.9,0.24,1.36,0.24c0.58,0,1.16-0.13,1.7-0.38  c0.97-0.45,1.7-1.26,2.06-2.26c0.25-0.68,0.29-1.4,0.16-2.09l13.51-6.34c0.5-0.23,0.71-0.83,0.48-1.33  C53.68,6.08,53.08,5.86,52.58,6.09z M37.88,15.66c-0.18,0.5-0.55,0.9-1.03,1.13s-1.03,0.25-1.53,0.07c-0.5-0.18-0.9-0.55-1.13-1.03  s-0.25-1.03-0.07-1.53c0.18-0.5,0.55-0.9,1.03-1.13c0.27-0.13,0.56-0.19,0.85-0.19c0.23,0,0.46,0.04,0.68,0.12  c0.5,0.18,0.9,0.55,1.13,1.03c0,0,0,0,0,0C38.03,14.61,38.06,15.15,37.88,15.66z"/><path d="M6.57,7.91l13.51,6.34c-0.33,1.75,0.54,3.57,2.22,4.35c0.54,0.25,1.12,0.38,1.7,0.38c0.46,0,0.92-0.08,1.36-0.24  c1-0.36,1.81-1.1,2.26-2.06c0.45-0.97,0.5-2.05,0.14-3.06c-0.36-1-1.1-1.81-2.06-2.26c-1.68-0.79-3.63-0.29-4.77,1.08L7.42,6.09  c-0.5-0.23-1.1-0.02-1.33,0.48C5.86,7.08,6.07,7.67,6.57,7.91z M22.19,14.13c0.47-1,1.66-1.43,2.66-0.96  c0.48,0.23,0.85,0.63,1.03,1.13c0.18,0.5,0.16,1.04-0.07,1.53c-0.23,0.48-0.63,0.85-1.13,1.03c-0.5,0.18-1.05,0.16-1.53-0.07  C22.16,16.32,21.72,15.13,22.19,14.13z"/><text x="0" y="75" fill="#000000" font-size="5px" font-weight="bold" font-family="'Helvetica Neue', Helvetica, Arial-Unicode, Arial, Sans-serif">Created by Vectorstall</text><text x="0" y="80" fill="#000000" font-size="5px" font-weight="bold" font-family="'Helvetica Neue', Helvetica, Arial-Unicode, Arial, Sans-serif">from the Noun Project</text></svg>