<svg xmlns="http://www.w3.org/2000/svg" xmlns:xlink="http://www.w3.org/1999/xlink" version="1.1" x="0px" y="0px" viewBox="0 0 100 125" enable-background="new 0 0 100 100" xml:space="preserve"><g><path d="M57.279,39.147c0,0,2.905-8.711,12.196-5.808c9.293,2.904,6.39-6.97,3.776-8.131s-7.841-11.906-2.323-17.714   c0,0,1.741,0.581,2.903,1.743c0,0,3.485,3.194,0.581,4.355c-2.904,1.162-1.743,5.228,5.808,9.728   c7.551,4.502,2.759,12.632,2.759,13.213c0,0,6.824-1.742,10.019-10.164c0,0,0.58,12.487-16.553,18.004c0,0,3.195,3.659,2.323,4.734   c-0.871,1.074-7.84-0.378-8.13,5.141c-0.292,5.518-3.485,2.903-4.356,8.712c-0.871,5.808,7.841,11.44,7.55,20.908   c-1.742,7.84-9.583,3.193-9.873,2.323c0,0,1.742-13.649-6.68-14.229c-3.193,4.646-4.355,12.196-4.936,13.067v3.321   c0,0-7.842,6.515-10.745,0c0.364-11.247,2.613-16.679,2.613-16.679s-2.977-3.69-2.613,0.87c0.364,4.562,2.903,10.164-9.001,6.68   c0.87-4.646,0-8.421,0-8.421s-16.263,2.613-14.521,11.325c-1.441,3.922-8.421,0.58-8.131-2.033c0,0-1.451-7.26,2.033-10.164   c3.484-2.903-4.066-9.002,9.873-23.522c9.637-6.918,16.262-2.613,20.037-2.033c0,0,3.217-6.866,5.819-7.789   C50.311,35.663,53.162,36.659,57.279,39.147z"/></g><text x="0" y="115" fill="#000000" font-size="5px" font-weight="bold" font-family="'Helvetica Neue', Helvetica, Arial-Unicode, Arial, Sans-serif">Created by icons.design</text><text x="0" y="120" fill="#000000" font-size="5px" font-weight="bold" font-family="'Helvetica Neue', Helvetica, Arial-Unicode, Arial, Sans-serif">from the Noun Project</text></svg>