<svg xmlns:dc="http://purl.org/dc/elements/1.1/" xmlns:cc="http://creativecommons.org/ns#" xmlns:rdf="http://www.w3.org/1999/02/22-rdf-syntax-ns#" xmlns:svg="http://www.w3.org/2000/svg" xmlns="http://www.w3.org/2000/svg" xmlns:sodipodi="http://sodipodi.sourceforge.net/DTD/sodipodi-0.dtd" xmlns:inkscape="http://www.inkscape.org/namespaces/inkscape" version="1.1" x="0px" y="0px" viewBox="0 0 100 125"><g transform="translate(0,-952.36218)"><path style="color:#000000;enable-background:accumulate;" d="m 50,956.36695 c -6.1422,0 -12.28235,2.345 -16.96875,7.0312 -3.6804,3.6805 -5.8976,8.2601 -6.6875,13.0313 -10.2666,0.8462 -18.3437497,9.4526 -18.3437497,19.9375 0,11.04565 8.9543997,19.99995 19.9999997,19.99995 l 47,0 c 9.418,0 17,-7.5819 17,-16.99995 0,-9.418 -7.582,-17 -17,-17 l -1.09375,0 c 0.5613,-6.7872 -1.7448,-13.7758 -6.9375,-18.9688 -4.6863,-4.6862 -10.82655,-7.0312 -16.96875,-7.0312 z m -24.125,66.99995 c -0.64044,0.045 -1.24858,0.4021 -1.59375,1 l -4,6.9375 c -0.55229,0.9566 -0.23786,2.1664 0.71875,2.7187 0.95661,0.5524 2.16647,0.2379 2.71875,-0.7187 l 4,-6.9375 c 0.55229,-0.9566 0.23786,-2.1664 -0.71875,-2.7188 -0.35873,-0.2071 -0.74074,-0.3084 -1.125,-0.2812 z m 17,0 c -0.64044,0.045 -1.24858,0.4021 -1.59375,1 l -4,6.9375 c -0.55229,0.9566 -0.23786,2.1664 0.71875,2.7187 0.95661,0.5524 2.16647,0.2379 2.71875,-0.7187 l 4,-6.9375 c 0.55229,-0.9566 0.23786,-2.1664 -0.71875,-2.7188 -0.35873,-0.2071 -0.74074,-0.3084 -1.125,-0.2812 z m 17,0 c -0.64044,0.045 -1.24858,0.4021 -1.59375,1 l -4,6.9375 c -0.55229,0.9566 -0.23786,2.1664 0.71875,2.7187 0.95661,0.5524 2.16647,0.2379 2.71875,-0.7187 l 4,-6.9375 c 0.55229,-0.9566 0.23786,-2.1664 -0.71875,-2.7188 -0.35873,-0.2071 -0.74074,-0.3084 -1.125,-0.2812 z m 17,0 c -0.64044,0.045 -1.24858,0.4021 -1.59375,1 l -4,6.9375 c -0.55229,0.9566 -0.23786,2.1664 0.71875,2.7187 0.95661,0.5524 2.16647,0.2379 2.71875,-0.7187 l 4,-6.9375 c 0.55229,-0.9566 0.23786,-2.1664 -0.71875,-2.7188 -0.35873,-0.2071 -0.74074,-0.3084 -1.125,-0.2812 z m -47,14.0625 c -0.64043,0.045 -1.24857,0.4021 -1.59375,1 l -4,6.9375 c -0.55228,0.9566 -0.23786,2.1664 0.71875,2.7188 0.95661,0.5523 2.16647,0.2378 2.71875,-0.7188 l 4,-6.9375 c 0.55229,-0.9566 0.23786,-2.1664 -0.71875,-2.7187 -0.35873,-0.2072 -0.74074,-0.3085 -1.125,-0.2813 z m 17,0 c -0.64043,0.045 -1.24857,0.4021 -1.59375,1 l -4,6.9375 c -0.55228,0.9566 -0.23786,2.1664 0.71875,2.7188 0.95661,0.5523 2.16647,0.2378 2.71875,-0.7188 l 4,-6.9375 c 0.55229,-0.9566 0.23786,-2.1664 -0.71875,-2.7187 -0.35873,-0.2072 -0.74074,-0.3085 -1.125,-0.2813 z m 17,0 c -0.64043,0.045 -1.24857,0.4021 -1.59375,1 l -4,6.9375 c -0.55228,0.9566 -0.23786,2.1664 0.71875,2.7188 0.95661,0.5523 2.16647,0.2378 2.71875,-0.7188 l 4,-6.9375 c 0.55229,-0.9566 0.23786,-2.1664 -0.71875,-2.7187 -0.35873,-0.2072 -0.74074,-0.3085 -1.125,-0.2813 z" fill="#000000" stroke="none" marker="none" visibility="visible" display="inline" overflow="visible"/></g><text x="0" y="115" fill="#000000" font-size="5px" font-weight="bold" font-family="'Helvetica Neue', Helvetica, Arial-Unicode, Arial, Sans-serif">Created by Kimmi Studio</text><text x="0" y="120" fill="#000000" font-size="5px" font-weight="bold" font-family="'Helvetica Neue', Helvetica, Arial-Unicode, Arial, Sans-serif">from the Noun Project</text></svg>