<svg xmlns="http://www.w3.org/2000/svg" xmlns:xlink="http://www.w3.org/1999/xlink" version="1.1" x="0px" y="0px" viewBox="0 0 100 125" style="enable-background:new 0 0 100 100;" xml:space="preserve"><g><path d="M84.7,21.5c-0.3-0.3-0.7-0.3-1.1-0.2c-1.1-0.5-3.5-1-6.7,2.2L58.7,41.7c-1.6-0.8-3.1-1.3-4.3-1.6L54.1,25v-3.4h2   c0.5,0,1-0.4,1-1s-0.4-1-1-1h-2V17h2c0.5,0,1-0.4,1-1c0-0.5-0.4-1-1-1h-2v-2.2L56,9.4c0.2-0.3,0.2-0.7,0-1l-2-3.3   C53.7,5.2,53.4,5,53.1,5h-3.2c-0.3,0-0.6,0.2-0.8,0.5l-2,3.3c-0.2,0.3-0.2,0.7,0,1l1.9,3.4v2.2h-2.2c-0.5,0-1,0.4-1,1   c0,0.5,0.4,1,1,1H49V20h-2.2c-0.5,0-1,0.4-1,1s0.4,1,1,1H49v3.4l-0.4,15.1c-4.1,0.9-11.8,4-11.8,14.3v4.3c0,0.4,0.3,0.8,0.6,0.9   c0.1,0,0.9,0.4,1.7,1.6L24.3,76.1l0,0l0,0l-9,9c-0.4,0.4-0.4,1,0,1.4c0.2,0.2,0.4,0.3,0.7,0.3s0.5-0.1,0.7-0.3l8.3-8.3l1.5,1.5   c0.2,0.2,0.4,0.3,0.7,0.3c0.3,0,0.5-0.1,0.7-0.3L40.5,67c-0.1,1-0.8,6.5-5.2,6.5c-0.5,0-0.9,0.4-1,0.9l-0.4,4.1   c0,0.3-0.7,6.9,3.6,11.8c0.9,1,2,1.9,3.2,2.6c0.1,0.1,0.2,0.1,0.2,0.1c2.5,1.4,5.7,2.1,9.4,2.1h2.1c5.7,0,10-1.6,12.9-4.8   c4.3-4.9,3.6-11.5,3.6-11.8l-0.4-4.1c-0.1-0.5-0.5-0.9-1-0.9c-4.6,0-5.2-6-5.2-6.6c0.2-6,3-7.1,3.1-7.2c0.4-0.1,0.6-0.5,0.6-0.9   v-4.3c0-4.4-1.4-7.5-3.4-9.6L84.5,23C85,22.5,85,21.9,84.7,21.5z M78.3,24.9c1.6-1.6,2.9-2,3.7-2L61.3,43.5c-0.3-0.3-0.6-0.5-1-0.7   L78.3,24.9z M50.9,26.1h1.3l0.5,27.2h-2.5L50.9,26.1z M50.5,6.9h2.1L54,9.2l-1.7,3.1c-0.1,0.1-0.1,0.3-0.1,0.5v11.3h-1.3V12.8   c0-0.2,0-0.3-0.1-0.5L49,9.2L50.5,6.9z M27.2,77.6l-0.9-0.9L40,63.1c0.1,0.4,0.2,0.9,0.3,1.4L27.2,77.6z M36.7,85   c0-0.3,0.2-0.9,1-0.9c1.3,0,5.3,4.4,5.3,5.8c0,0.7-0.9,1-1.4,1.1c-1-0.6-1.8-1.3-2.6-2.1C37.9,87.7,37.2,86.3,36.7,85z M64.2,58.2   c-1.2,0.7-3.6,2.9-3.8,8.7V67c0.2,2.7,1.7,7.8,6.3,8.4l0.4,3.3c0,0.1,0.6,6.1-3.1,10.3c-2.5,2.8-6.3,4.2-11.4,4.2h-2.1   c-2.6,0-4.8-0.4-6.7-1c0.6-0.5,1.1-1.2,1.1-2.2c0-2.3-4.6-7.7-7.2-7.7c-0.7,0-1.2,0.2-1.6,0.5c-0.4-2.3-0.2-4-0.2-4.1l0.4-3.3   c4.6-0.6,6.1-5.6,6.3-8.4v-0.1c-0.1-2.6-0.6-4.4-1.3-5.8l0,0c-0.8-1.6-1.8-2.5-2.5-2.9v-3.8c0-3.8,1.3-10.2,9.9-12.3l-0.3,12   c0,0.3,0.1,0.5,0.3,0.7s0.4,0.3,0.7,0.3h4.5c0.3,0,0.5-0.1,0.7-0.3s0.3-0.4,0.3-0.7l-0.2-12c1.3,0.3,2.7,0.8,4.1,1.6c0,0,0,0,0.1,0   c3,1.8,5.7,4.9,5.7,10.6v3.9H64.2z"/><path d="M48,67.3h-0.2c-1.3,0-3.2,0.9-3.2,3v6.1c0,0.3-0.2,1-1.1,1c-0.5,0-1,0.4-1,1c0,0.5,0.4,1,1,1c2,0,2.9-1.7,3-2.8v-0.1v-6.2   c0-1,1-1.1,1.3-1.1H48c0.5,0,1-0.4,1-1C49,67.8,48.5,67.3,48,67.3z"/><path d="M59.4,77.5c-0.9,0-1.1-0.7-1.1-1v-6.1c0-2.2-1.9-3-3.2-3h-0.2c-0.5,0-1,0.4-1,1c0,0.5,0.4,1,1,1h0.2c0.2,0,1.3,0.1,1.3,1.1   v6.2v0.1c0.1,1.1,1,2.8,3,2.8c0.5,0,1-0.4,1-1C60.3,78,59.9,77.5,59.4,77.5z"/></g><text x="0" y="115" fill="#000000" font-size="5px" font-weight="bold" font-family="'Helvetica Neue', Helvetica, Arial-Unicode, Arial, Sans-serif">Created by Nerea Martínez Orduña</text><text x="0" y="120" fill="#000000" font-size="5px" font-weight="bold" font-family="'Helvetica Neue', Helvetica, Arial-Unicode, Arial, Sans-serif">from the Noun Project</text></svg>